<svg width="20" height="20" fill="none" xmlns="http://www.w3.org/2000/svg"><g clip-path="url(#clip0_146_1117)" fill="#fff"><path d="M14.375 10h-2.5a.625.625 0 00-.625.625v5c0 .345.28.625.625.625h2.5c.69 0 1.25-.56 1.25-1.25v-3.75c0-.69-.56-1.25-1.25-1.25zm0 5H12.5v-3.75h1.875V15zM20 11.25V10h-3.125a.625.625 0 00-.625.625v5.625h1.25v-2.5H20V12.5h-2.5v-1.25H20z"/><path d="M1.25 18.125V1.875c0-.345.28-.625.625-.625h9.375v2.5c0 .69.56 1.25 1.25 1.25H15v1.875h1.25v-2.5a.625.625 0 00-.181-.444l-3.75-3.75A.625.625 0 0011.875 0h-10C.839 0 0 .84 0 1.875v16.25C0 19.16.84 20 1.875 20H6.25v-1.25H1.875a.625.625 0 01-.625-.625z"/><path d="M9.375 10h-2.5a.625.625 0 00-.625.625v5.625H7.5v-1.875h1.875c.69 0 1.25-.56 1.25-1.25V11.25c0-.69-.56-1.25-1.25-1.25zm0 3.125H7.5V11.25h1.875v1.875z"/></g><defs><clipPath id="clip0_146_1117"><path fill="#fff" d="M0 0h20v20H0z"/></clipPath></defs></svg>