<svg xmlns="http://www.w3.org/2000/svg"><defs><clipPath id="clip0_404_34"><path fill="#fff" d="M0 0h24v24H0z"/></clipPath><clipPath id="clip0_404_47"><path fill="#fff" d="M0 0h24v24H0z"/></clipPath><clipPath id="clip0_146_842"><path fill="#fff" d="M0 0h18v18H0z"/></clipPath></defs><symbol id="icon-app" viewBox="0 0 24 24"><g clip-path="url(#clip0_404_34)"><path d="M16.912 10.627l-4.5-3a.75.75 0 00-.825 0L9.75 8.85V7.5a.75.75 0 00-1.5 0v2.348l-1.163.75a.75.75 0 00.825 1.244l.338-.217V15a.75.75 0 00.75.75h6a.75.75 0 00.75-.75v-3.345c.208.19.47.31.75.345a.75.75 0 00.412-1.373zM14.25 14.25h-1.5v-.75a.75.75 0 10-1.5 0v.75h-1.5v-3.6L12 9.15l2.25 1.5v3.6z" fill="#4CAF50"/><path d="M19.5 15.75a.75.75 0 00.75-.75V3.75A3.75 3.75 0 0016.5 0h-9a3.75 3.75 0 00-3.75 3.75v16.5A3.75 3.75 0 007.5 24h9a3.75 3.75 0 003.75-3.75V18a.75.75 0 10-1.5 0v2.25a2.25 2.25 0 01-2.25 2.25h-9a2.25 2.25 0 01-2.25-2.25V3.75A2.25 2.25 0 017.5 1.5v.75A2.25 2.25 0 009.75 4.5h4.5a2.25 2.25 0 002.25-2.25V1.5a2.25 2.25 0 012.25 2.25V15a.75.75 0 00.75.75zM15 2.25a.75.75 0 01-.75.75h-4.5A.75.75 0 019 2.25V1.5h6v.75z" fill="#757575"/><path d="M15.75 21h-7.5a.75.75 0 110-1.5h7.5a.75.75 0 110 1.5z" fill="#757575"/></g></symbol><symbol id="icon-calendar" viewBox="0 0 18 18"><path d="M14.525 1.386h-.672v-.68a.703.703 0 00-1.405 0v.68H5.552v-.68a.703.703 0 10-1.405 0v.68h-.672A3.48 3.48 0 000 4.861v9.66a3.48 3.48 0 003.475 3.475h11.05A3.48 3.48 0 0018 14.521V4.86a3.48 3.48 0 00-3.475-3.475zM3.475 2.792h.672v1.37a.703.703 0 101.405 0v-1.37h6.896v1.37a.703.703 0 101.405 0v-1.37h.672c1.141 0 2.07.928 2.07 2.07v.67H1.404v-.67c0-1.142.929-2.07 2.07-2.07zm11.05 13.798H3.475a2.072 2.072 0 01-2.07-2.07V6.939h15.19v7.583c0 1.14-.929 2.07-2.07 2.07zM6.243 9.703a.703.703 0 01-.702.703H4.158a.703.703 0 110-1.406h1.383c.388 0 .702.315.702.703zm8.301 0a.703.703 0 01-.702.703h-1.383a.703.703 0 110-1.406h1.383c.388 0 .702.315.702.703zm-4.154 0a.703.703 0 01-.703.703H8.305a.703.703 0 110-1.406h1.382c.388 0 .703.315.703.703zm-4.147 4.146a.703.703 0 01-.702.703H4.158a.703.703 0 110-1.405h1.383c.388 0 .702.314.702.702zm8.301 0a.703.703 0 01-.702.703h-1.383a.703.703 0 110-1.405h1.383c.388 0 .702.314.702.702zm-4.154 0a.703.703 0 01-.703.703H8.305a.703.703 0 110-1.405h1.382c.388 0 .703.314.703.702z" fill="#757575"/></symbol><symbol id="icon-coins" viewBox="0 0 14 14"><path d="M4.959 13.417A5.29 5.29 0 007 13.02a5.203 5.203 0 002.042.397c2.126 0 3.792-1.135 3.792-2.584V8.417c0-1.45-1.666-2.584-3.792-2.584a5.33 5.33 0 00-.292.01V3.111C8.75 1.69 7.085.583 4.96.583c-2.127 0-3.792 1.109-3.792 2.528v7.778c0 1.42 1.665 2.528 3.792 2.528zm6.708-2.584c0 .67-1.078 1.417-2.625 1.417s-2.625-.747-2.625-1.417v-.54c.79.481 1.7.726 2.625.707a4.858 4.858 0 002.625-.707v.54zM9.042 7c1.547 0 2.625.747 2.625 1.417s-1.078 1.416-2.625 1.416-2.625-.746-2.625-1.416C6.417 7.747 7.495 7 9.042 7zM4.959 1.75c1.547 0 2.625.718 2.625 1.36 0 .644-1.078 1.362-2.625 1.362s-2.625-.717-2.625-1.361S3.412 1.75 4.959 1.75zM2.334 4.948c.793.47 1.702.71 2.625.691.922.02 1.831-.22 2.625-.691v1.078a3.774 3.774 0 00-1.692.937c-.307.067-.62.1-.933.102-1.547 0-2.625-.718-2.625-1.361v-.756zm0 2.593c.793.47 1.702.71 2.625.69.103 0 .204-.012.306-.018a1.807 1.807 0 00-.015.204v1.216c-.098.006-.192.025-.291.025-1.547 0-2.625-.718-2.625-1.362v-.755zm0 2.592a4.94 4.94 0 002.625.691c.098 0 .194-.007.291-.012v.021c.009.497.2.973.536 1.338a4.57 4.57 0 01-.827.079c-1.547 0-2.625-.717-2.625-1.36v-.757z" fill="#fff"/></symbol><symbol id="icon-hand" viewBox="0 0 24 24"><g clip-path="url(#clip0_404_47)"><path d="M23.663 12.877l-1.223-.817a2.25 2.25 0 00-2.843.277L16.5 15.466a2.25 2.25 0 00-2.25-1.965 2.812 2.812 0 01-1.845-.383 6.668 6.668 0 00-7.68.21L4.5 13.5v-.75a.75.75 0 00-.75-.75h-3a.75.75 0 00-.75.75v10.5a.75.75 0 00.75.75h3a.75.75 0 00.75-.75v-7.875l1.125-.848a5.25 5.25 0 015.947-.164A4.17 4.17 0 0014.25 15a.75.75 0 01.75.75v.75H9.75a.75.75 0 000 1.5h6a.787.787 0 00.532-.218l4.38-4.38a.75.75 0 01.946-.097l.57.383-5.828 7.762a.75.75 0 01-.6.3h-9a.75.75 0 000 1.5h9a2.25 2.25 0 001.8-.9l6.3-8.4a.748.748 0 00-.188-1.072zM3 22.5H1.5v-9H3v9z" fill="#757575"/><path d="M21.488 4.68l-5.25-4.5a.75.75 0 00-.976 0L12.75 2.333V.75a.75.75 0 10-1.5 0v2.873L10.012 4.68a.75.75 0 00.976 1.14l.262-.225V9a1.5 1.5 0 001.5 1.5h6a1.5 1.5 0 001.5-1.5V5.595l.262.225a.75.75 0 00.976-1.14zM18.75 9H16.5V7.5a.75.75 0 10-1.5 0V9h-2.25V4.313l3-2.573 3 2.573V9z" fill="#4CAF50"/></g></symbol><symbol id="icon-metro" viewBox="0 0 20 20"><path d="M13.242 2.248L10 12.468 6.758 2.249C2.901 3.573 0 7.169 0 11.292c0 2.483 1.013 4.772 2.652 6.46h4.7l.493-2.137c-5.615-2.2-4.554-9.018-2.518-10.13.242.072 3.782 12.217 3.782 12.217h1.781s3.541-12.145 3.783-12.218c2.036 1.113 3.097 7.93-2.518 10.131l.493 2.137h4.7C18.987 16.064 20 13.775 20 11.292c0-4.123-2.902-7.719-6.758-9.044z" fill="#8EB3F5"/></symbol><symbol id="icon-view" viewBox="0 0 18 18"><g clip-path="url(#clip0_146_842)"><path d="M17.897 8.698c-1.505-3.169-4.928-6.026-8.932-6.026-4.505 0-7.744 3.524-8.932 6.026a.704.704 0 000 .604c1.505 3.169 4.928 6.026 8.932 6.026 4.505 0 7.743-3.524 8.932-6.026a.704.704 0 000-.604zm-8.932 5.224c-3.24 0-5.925-2.135-7.5-4.922 1.568-2.776 4.252-4.922 7.5-4.922 3.239 0 5.925 2.135 7.5 4.922-1.569 2.776-4.253 4.922-7.5 4.922zm0-8.438A3.52 3.52 0 005.449 9a3.52 3.52 0 003.516 3.516A3.52 3.52 0 0012.48 9a3.52 3.52 0 00-3.515-3.516zm0 5.625A2.112 2.112 0 016.855 9c0-1.163.947-2.11 2.11-2.11 1.163 0 2.11.947 2.11 2.11 0 1.163-.947 2.11-2.11 2.11z"/></g></symbol></svg>