<svg width="24" height="24" viewBox="0 0 24 24" fill="none" xmlns="http://www.w3.org/2000/svg">
<g clip-path="url(#clip0_404_47)">
<path d="M23.6625 12.8775L22.44 12.06C22.0073 11.7702 21.4874 11.6394 20.9691 11.69C20.4507 11.7406 19.966 11.9694 19.5975 12.3375L16.5 15.465C16.4303 14.919 16.1628 14.4174 15.7481 14.0553C15.3335 13.6931 14.8005 13.4956 14.25 13.5C13.6093 13.5885 12.9577 13.4534 12.405 13.1175C11.2595 12.3561 9.90664 11.9676 8.53171 12.0052C7.15679 12.0428 5.82713 12.5047 4.725 13.3275L4.5 13.5V12.75C4.5 12.5511 4.42098 12.3604 4.28033 12.2197C4.13968 12.0791 3.94891 12 3.75 12H0.75C0.551088 12 0.360322 12.0791 0.21967 12.2197C0.0790176 12.3604 0 12.5511 0 12.75L0 23.25C0 23.449 0.0790176 23.6397 0.21967 23.7804C0.360322 23.921 0.551088 24 0.75 24H3.75C3.94891 24 4.13968 23.921 4.28033 23.7804C4.42098 23.6397 4.5 23.449 4.5 23.25V15.375L5.625 14.5275C6.48326 13.9016 7.51123 13.5506 8.57312 13.5212C9.63501 13.4917 10.6809 13.7851 11.5725 14.3625C12.3671 14.8719 13.3111 15.0967 14.25 15C14.4489 15 14.6397 15.0791 14.7803 15.2197C14.921 15.3604 15 15.5511 15 15.75V16.5H9.75C9.55109 16.5 9.36032 16.5791 9.21967 16.7197C9.07902 16.8604 9 17.0511 9 17.25C9 17.449 9.07902 17.6397 9.21967 17.7804C9.36032 17.921 9.55109 18 9.75 18H15.75C15.9486 17.9973 16.1388 17.9196 16.2825 17.7825L20.6625 13.4025C20.7845 13.2797 20.9453 13.2029 21.1176 13.1851C21.2898 13.1673 21.4629 13.2097 21.6075 13.305L22.1775 13.6875L16.35 21.45C16.2801 21.5432 16.1896 21.6188 16.0854 21.6709C15.9813 21.7229 15.8664 21.75 15.75 21.75H6.75C6.55109 21.75 6.36032 21.8291 6.21967 21.9697C6.07902 22.1104 6 22.3011 6 22.5C6 22.699 6.07902 22.8897 6.21967 23.0304C6.36032 23.171 6.55109 23.25 6.75 23.25H15.75C16.0993 23.25 16.4438 23.1687 16.7562 23.0125C17.0687 22.8563 17.3404 22.6295 17.55 22.35L23.85 13.95C23.9108 13.8683 23.9543 13.775 23.9778 13.6758C24.0013 13.5767 24.0044 13.4738 23.9869 13.3735C23.9693 13.2731 23.9315 13.1774 23.8757 13.0921C23.82 13.0068 23.7474 12.9338 23.6625 12.8775ZM3 22.5H1.5V13.5H3V22.5Z" fill="#757575"/>
<path d="M21.4875 4.68005L16.2375 0.180049C16.1017 0.0638523 15.9288 0 15.75 0C15.5713 0 15.3984 0.0638523 15.2625 0.180049L12.75 2.33255V0.750049C12.75 0.551137 12.671 0.360372 12.5304 0.219719C12.3897 0.079067 12.199 4.93442e-05 12 4.93442e-05C11.8011 4.93442e-05 11.6104 0.079067 11.4697 0.219719C11.3291 0.360372 11.25 0.551137 11.25 0.750049V3.62255L10.0125 4.68005C9.86137 4.80934 9.76775 4.99339 9.75227 5.19171C9.7368 5.39003 9.80075 5.58638 9.93004 5.73755C10.0593 5.88872 10.2434 5.98234 10.4417 5.99782C10.64 6.01329 10.8364 5.94934 10.9875 5.82005L11.25 5.59505V9.00005C11.25 9.39787 11.4081 9.7794 11.6894 10.0607C11.9707 10.342 12.3522 10.5 12.75 10.5H18.75C19.1479 10.5 19.5294 10.342 19.8107 10.0607C20.092 9.7794 20.25 9.39787 20.25 9.00005V5.59505L20.5125 5.82005C20.6637 5.94934 20.8601 6.01329 21.0584 5.99782C21.2567 5.98234 21.4407 5.88872 21.57 5.73755C21.6993 5.58638 21.7633 5.39003 21.7478 5.19171C21.7323 4.99339 21.6387 4.80934 21.4875 4.68005ZM18.75 9.00005H16.5V7.50005C16.5 7.30114 16.421 7.11037 16.2804 6.96972C16.1397 6.82907 15.949 6.75005 15.75 6.75005C15.5511 6.75005 15.3604 6.82907 15.2197 6.96972C15.0791 7.11037 15 7.30114 15 7.50005V9.00005H12.75V4.31255L15.75 1.74005L18.75 4.31255V9.00005Z" fill="#4CAF50"/>
</g>
<defs>
<clipPath id="clip0_404_47">
<rect width="24" height="24" fill="white"/>
</clipPath>
</defs>
</svg>
