<svg width="24" height="24" viewBox="0 0 24 24" fill="none" xmlns="http://www.w3.org/2000/svg">
<g clip-path="url(#clip0_404_34)">
<path d="M16.9121 10.6275L12.4121 7.6275C12.2897 7.54685 12.1463 7.50387 11.9996 7.50387C11.853 7.50387 11.7096 7.54685 11.5871 7.6275L9.74964 8.85V7.5C9.74964 7.30109 9.67062 7.11032 9.52997 6.96967C9.38932 6.82902 9.19855 6.75 8.99964 6.75C8.80073 6.75 8.60996 6.82902 8.46931 6.96967C8.32866 7.11032 8.24964 7.30109 8.24964 7.5V9.8475L7.08714 10.5975C6.94161 10.7147 6.84508 10.8821 6.81647 11.0667C6.78785 11.2514 6.8292 11.4401 6.93243 11.5959C7.03565 11.7516 7.19331 11.8633 7.37453 11.9089C7.55574 11.9545 7.74747 11.9308 7.91214 11.8425L8.24964 11.625V15C8.24964 15.1989 8.32866 15.3897 8.46931 15.5303C8.60996 15.671 8.80073 15.75 8.99964 15.75H14.9996C15.1986 15.75 15.3893 15.671 15.53 15.5303C15.6706 15.3897 15.7496 15.1989 15.7496 15V11.655C15.958 11.8447 16.22 11.9652 16.4996 12C16.6599 11.9988 16.8155 11.9462 16.9437 11.8501C17.0719 11.754 17.166 11.6194 17.2121 11.4659C17.2582 11.3124 17.254 11.1482 17.2 10.9974C17.146 10.8465 17.0451 10.7169 16.9121 10.6275ZM14.2496 14.25H12.7496V13.5C12.7496 13.3011 12.6706 13.1103 12.53 12.9697C12.3893 12.829 12.1986 12.75 11.9996 12.75C11.8007 12.75 11.61 12.829 11.4693 12.9697C11.3287 13.1103 11.2496 13.3011 11.2496 13.5V14.25H9.74964V10.65L11.9996 9.15L14.2496 10.65V14.25Z" fill="#4CAF50"/>
<path d="M19.5 15.75C19.6989 15.75 19.8897 15.671 20.0303 15.5303C20.171 15.3897 20.25 15.1989 20.25 15V3.75C20.25 2.75544 19.8549 1.80161 19.1517 1.09835C18.4484 0.395088 17.4946 0 16.5 0L7.5 0C6.50544 0 5.55161 0.395088 4.84835 1.09835C4.14509 1.80161 3.75 2.75544 3.75 3.75V20.25C3.75 21.2446 4.14509 22.1984 4.84835 22.9016C5.55161 23.6049 6.50544 24 7.5 24H16.5C17.4946 24 18.4484 23.6049 19.1517 22.9016C19.8549 22.1984 20.25 21.2446 20.25 20.25V18C20.25 17.8011 20.171 17.6103 20.0303 17.4697C19.8897 17.329 19.6989 17.25 19.5 17.25C19.3011 17.25 19.1103 17.329 18.9697 17.4697C18.829 17.6103 18.75 17.8011 18.75 18V20.25C18.75 20.8467 18.5129 21.419 18.091 21.841C17.669 22.2629 17.0967 22.5 16.5 22.5H7.5C6.90326 22.5 6.33097 22.2629 5.90901 21.841C5.48705 21.419 5.25 20.8467 5.25 20.25V3.75C5.25 3.15326 5.48705 2.58097 5.90901 2.15901C6.33097 1.73705 6.90326 1.5 7.5 1.5V2.25C7.5 2.84674 7.73705 3.41903 8.15901 3.84099C8.58097 4.26295 9.15326 4.5 9.75 4.5H14.25C14.8467 4.5 15.419 4.26295 15.841 3.84099C16.2629 3.41903 16.5 2.84674 16.5 2.25V1.5C17.0967 1.5 17.669 1.73705 18.091 2.15901C18.5129 2.58097 18.75 3.15326 18.75 3.75V15C18.75 15.1989 18.829 15.3897 18.9697 15.5303C19.1103 15.671 19.3011 15.75 19.5 15.75ZM15 2.25C15 2.44891 14.921 2.63968 14.7803 2.78033C14.6397 2.92098 14.4489 3 14.25 3H9.75C9.55109 3 9.36032 2.92098 9.21967 2.78033C9.07902 2.63968 9 2.44891 9 2.25V1.5H15V2.25Z" fill="#757575"/>
<path d="M15.75 21H8.25C8.05109 21 7.86032 20.921 7.71967 20.7803C7.57902 20.6397 7.5 20.4489 7.5 20.25C7.5 20.0511 7.57902 19.8603 7.71967 19.7197C7.86032 19.579 8.05109 19.5 8.25 19.5H15.75C15.9489 19.5 16.1397 19.579 16.2803 19.7197C16.421 19.8603 16.5 20.0511 16.5 20.25C16.5 20.4489 16.421 20.6397 16.2803 20.7803C16.1397 20.921 15.9489 21 15.75 21Z" fill="#757575"/>
</g>
<defs>
<clipPath id="clip0_404_34">
<rect width="24" height="24" fill="white"/>
</clipPath>
</defs>
</svg>
