<svg xmlns="http://www.w3.org/2000/svg" xmlns:xlink="http://www.w3.org/1999/xlink"><defs>
<clipPath id="clip0_404_34">
<rect width="24" height="24" fill="white"/>
</clipPath>

<clipPath id="clip0_404_47">
<rect width="24" height="24" fill="white"/>
</clipPath>

<clipPath id="clip0_146_842">
<rect width="18" height="18" fill="white"/>
</clipPath>
</defs><symbol id="icon-app" viewBox="0 0 24 24">
<g clip-path="url(#clip0_404_34)">
<path d="M16.9121 10.6275L12.4121 7.6275C12.2897 7.54685 12.1463 7.50387 11.9996 7.50387C11.853 7.50387 11.7096 7.54685 11.5871 7.6275L9.74964 8.85V7.5C9.74964 7.30109 9.67062 7.11032 9.52997 6.96967C9.38932 6.82902 9.19855 6.75 8.99964 6.75C8.80073 6.75 8.60996 6.82902 8.46931 6.96967C8.32866 7.11032 8.24964 7.30109 8.24964 7.5V9.8475L7.08714 10.5975C6.94161 10.7147 6.84508 10.8821 6.81647 11.0667C6.78785 11.2514 6.8292 11.4401 6.93243 11.5959C7.03565 11.7516 7.19331 11.8633 7.37453 11.9089C7.55574 11.9545 7.74747 11.9308 7.91214 11.8425L8.24964 11.625V15C8.24964 15.1989 8.32866 15.3897 8.46931 15.5303C8.60996 15.671 8.80073 15.75 8.99964 15.75H14.9996C15.1986 15.75 15.3893 15.671 15.53 15.5303C15.6706 15.3897 15.7496 15.1989 15.7496 15V11.655C15.958 11.8447 16.22 11.9652 16.4996 12C16.6599 11.9988 16.8155 11.9462 16.9437 11.8501C17.0719 11.754 17.166 11.6194 17.2121 11.4659C17.2582 11.3124 17.254 11.1482 17.2 10.9974C17.146 10.8465 17.0451 10.7169 16.9121 10.6275ZM14.2496 14.25H12.7496V13.5C12.7496 13.3011 12.6706 13.1103 12.53 12.9697C12.3893 12.829 12.1986 12.75 11.9996 12.75C11.8007 12.75 11.61 12.829 11.4693 12.9697C11.3287 13.1103 11.2496 13.3011 11.2496 13.5V14.25H9.74964V10.65L11.9996 9.15L14.2496 10.65V14.25Z" fill="#4CAF50"/>
<path d="M19.5 15.75C19.6989 15.75 19.8897 15.671 20.0303 15.5303C20.171 15.3897 20.25 15.1989 20.25 15V3.75C20.25 2.75544 19.8549 1.80161 19.1517 1.09835C18.4484 0.395088 17.4946 0 16.5 0L7.5 0C6.50544 0 5.55161 0.395088 4.84835 1.09835C4.14509 1.80161 3.75 2.75544 3.75 3.75V20.25C3.75 21.2446 4.14509 22.1984 4.84835 22.9016C5.55161 23.6049 6.50544 24 7.5 24H16.5C17.4946 24 18.4484 23.6049 19.1517 22.9016C19.8549 22.1984 20.25 21.2446 20.25 20.25V18C20.25 17.8011 20.171 17.6103 20.0303 17.4697C19.8897 17.329 19.6989 17.25 19.5 17.25C19.3011 17.25 19.1103 17.329 18.9697 17.4697C18.829 17.6103 18.75 17.8011 18.75 18V20.25C18.75 20.8467 18.5129 21.419 18.091 21.841C17.669 22.2629 17.0967 22.5 16.5 22.5H7.5C6.90326 22.5 6.33097 22.2629 5.90901 21.841C5.48705 21.419 5.25 20.8467 5.25 20.25V3.75C5.25 3.15326 5.48705 2.58097 5.90901 2.15901C6.33097 1.73705 6.90326 1.5 7.5 1.5V2.25C7.5 2.84674 7.73705 3.41903 8.15901 3.84099C8.58097 4.26295 9.15326 4.5 9.75 4.5H14.25C14.8467 4.5 15.419 4.26295 15.841 3.84099C16.2629 3.41903 16.5 2.84674 16.5 2.25V1.5C17.0967 1.5 17.669 1.73705 18.091 2.15901C18.5129 2.58097 18.75 3.15326 18.75 3.75V15C18.75 15.1989 18.829 15.3897 18.9697 15.5303C19.1103 15.671 19.3011 15.75 19.5 15.75ZM15 2.25C15 2.44891 14.921 2.63968 14.7803 2.78033C14.6397 2.92098 14.4489 3 14.25 3H9.75C9.55109 3 9.36032 2.92098 9.21967 2.78033C9.07902 2.63968 9 2.44891 9 2.25V1.5H15V2.25Z" fill="#757575"/>
<path d="M15.75 21H8.25C8.05109 21 7.86032 20.921 7.71967 20.7803C7.57902 20.6397 7.5 20.4489 7.5 20.25C7.5 20.0511 7.57902 19.8603 7.71967 19.7197C7.86032 19.579 8.05109 19.5 8.25 19.5H15.75C15.9489 19.5 16.1397 19.579 16.2803 19.7197C16.421 19.8603 16.5 20.0511 16.5 20.25C16.5 20.4489 16.421 20.6397 16.2803 20.7803C16.1397 20.921 15.9489 21 15.75 21Z" fill="#757575"/>
</g>

</symbol><symbol id="icon-calendar" viewBox="0 0 18 18">
<path d="M14.5248 1.38619H13.8534V0.706821C13.8534 0.318658 13.5387 0.00400925 13.1506 0.00400925C12.7624 0.00400925 12.4477 0.318658 12.4477 0.706821V1.38619H5.55221V0.706821C5.55221 0.318658 5.23757 0.00400925 4.8494 0.00400925C4.46124 0.00400925 4.14659 0.318658 4.14659 0.706821V1.38619H3.47523C1.55898 1.38619 0 2.94517 0 4.86139V14.5208C0 16.437 1.55898 17.996 3.47523 17.996H14.5248C16.441 17.996 18 16.437 18 14.5208V4.86139C18 2.94517 16.441 1.38619 14.5248 1.38619ZM3.47523 2.79182H4.14659V4.1623C4.14659 4.55046 4.46124 4.86511 4.8494 4.86511C5.23757 4.86511 5.55221 4.55046 5.55221 4.1623V2.79182H12.4478V4.1623C12.4478 4.55046 12.7624 4.86511 13.1506 4.86511C13.5388 4.86511 13.8534 4.55046 13.8534 4.1623V2.79182H14.5248C15.666 2.79182 16.5944 3.72023 16.5944 4.86139V5.53278H1.40562V4.86139C1.40562 3.72023 2.33404 2.79182 3.47523 2.79182ZM14.5248 16.5904H3.47523C2.33404 16.5904 1.40562 15.6619 1.40562 14.5208V6.93841H16.5944V14.5208C16.5944 15.6619 15.666 16.5904 14.5248 16.5904ZM6.24333 9.70281C6.24333 10.091 5.92868 10.4056 5.54051 10.4056H4.15833C3.77016 10.4056 3.45552 10.091 3.45552 9.70281C3.45552 9.31465 3.77016 9 4.15833 9H5.54051C5.92864 9 6.24333 9.31465 6.24333 9.70281ZM14.5445 9.70281C14.5445 10.091 14.2299 10.4056 13.8417 10.4056H12.4595C12.0714 10.4056 11.7567 10.091 11.7567 9.70281C11.7567 9.31465 12.0714 9 12.4595 9H13.8417C14.2298 9 14.5445 9.31465 14.5445 9.70281ZM10.3899 9.70281C10.3899 10.091 10.0753 10.4056 9.6871 10.4056H8.30492C7.91676 10.4056 7.60211 10.091 7.60211 9.70281C7.60211 9.31465 7.91676 9 8.30492 9H9.6871C10.0752 9 10.3899 9.31465 10.3899 9.70281ZM6.24333 13.8494C6.24333 14.2376 5.92868 14.5522 5.54051 14.5522H4.15833C3.77016 14.5522 3.45552 14.2376 3.45552 13.8494C3.45552 13.4612 3.77016 13.1466 4.15833 13.1466H5.54051C5.92864 13.1466 6.24333 13.4612 6.24333 13.8494ZM14.5445 13.8494C14.5445 14.2376 14.2299 14.5522 13.8417 14.5522H12.4595C12.0714 14.5522 11.7567 14.2376 11.7567 13.8494C11.7567 13.4612 12.0714 13.1466 12.4595 13.1466H13.8417C14.2298 13.1466 14.5445 13.4612 14.5445 13.8494ZM10.3899 13.8494C10.3899 14.2376 10.0753 14.5522 9.6871 14.5522H8.30492C7.91676 14.5522 7.60211 14.2376 7.60211 13.8494C7.60211 13.4612 7.91676 13.1466 8.30492 13.1466H9.6871C10.0752 13.1466 10.3899 13.4612 10.3899 13.8494Z" fill="#757575"/>
</symbol><symbol id="icon-coins" viewBox="0 0 14 14">
<path d="M4.95866 13.4167C5.65876 13.4209 6.35272 13.286 7.00033 13.02C7.64725 13.2883 8.34168 13.4232 9.042 13.4167C11.1682 13.4167 12.8337 12.2821 12.8337 10.8331V8.41694C12.8337 6.96793 11.1682 5.83335 9.042 5.83335C8.94341 5.83335 8.84658 5.83802 8.75033 5.84327V3.11093C8.75033 1.69168 7.08491 0.583344 4.95866 0.583344C2.83241 0.583344 1.16699 1.69168 1.16699 3.11093V10.8891C1.16699 12.3084 2.83241 13.4167 4.95866 13.4167ZM11.667 10.8331C11.667 11.5034 10.589 12.25 9.042 12.25C7.495 12.25 6.41699 11.5034 6.41699 10.8331V10.2935C7.20696 10.774 8.1176 11.019 9.042 10.9999C9.96639 11.019 10.877 10.774 11.667 10.2935V10.8331ZM9.042 7.00002C10.589 7.00002 11.667 7.74668 11.667 8.41694C11.667 9.08719 10.589 9.83327 9.042 9.83327C7.495 9.83327 6.41699 9.0866 6.41699 8.41694C6.41699 7.74727 7.495 7.00002 9.042 7.00002ZM4.95866 1.75001C6.50566 1.75001 7.58366 2.46751 7.58366 3.11093C7.58366 3.75435 6.50566 4.47243 4.95866 4.47243C3.41166 4.47243 2.33366 3.75493 2.33366 3.11093C2.33366 2.46693 3.41166 1.75001 4.95866 1.75001ZM2.33366 4.94785C3.12691 5.41894 4.03627 5.6584 4.95866 5.6391C5.88105 5.6584 6.79041 5.41894 7.58366 4.94785V6.02585C6.94792 6.18609 6.36489 6.50917 5.89199 6.96327C5.58529 7.02964 5.27246 7.06366 4.95866 7.06477C3.41166 7.06477 2.33366 6.34727 2.33366 5.70385V4.94785ZM2.33366 7.54077C3.12708 8.01139 4.03636 8.25063 4.95866 8.23144C5.06249 8.23144 5.16283 8.2186 5.26491 8.21335C5.25622 8.28088 5.25135 8.34885 5.25033 8.41694V9.63319C5.15233 9.63902 5.05783 9.65769 4.95866 9.65769C3.41166 9.65769 2.33366 8.94019 2.33366 8.29619V7.54077ZM2.33366 10.1331C3.12691 10.6042 4.03627 10.8437 4.95866 10.8244C5.05666 10.8244 5.15291 10.8168 5.25033 10.8121V10.8331C5.25868 11.3297 5.4495 11.8058 5.78641 12.1707C5.51348 12.2222 5.23641 12.2488 4.95866 12.25C3.41166 12.25 2.33366 11.5325 2.33366 10.8891V10.1331Z" fill="white"/>
</symbol><symbol id="icon-hand" viewBox="0 0 24 24">
<g clip-path="url(#clip0_404_47)">
<path d="M23.6625 12.8775L22.44 12.06C22.0073 11.7702 21.4874 11.6394 20.9691 11.69C20.4507 11.7406 19.966 11.9694 19.5975 12.3375L16.5 15.465C16.4303 14.919 16.1628 14.4174 15.7481 14.0553C15.3335 13.6931 14.8005 13.4956 14.25 13.5C13.6093 13.5885 12.9577 13.4534 12.405 13.1175C11.2595 12.3561 9.90664 11.9676 8.53171 12.0052C7.15679 12.0428 5.82713 12.5047 4.725 13.3275L4.5 13.5V12.75C4.5 12.5511 4.42098 12.3604 4.28033 12.2197C4.13968 12.0791 3.94891 12 3.75 12H0.75C0.551088 12 0.360322 12.0791 0.21967 12.2197C0.0790176 12.3604 0 12.5511 0 12.75L0 23.25C0 23.449 0.0790176 23.6397 0.21967 23.7804C0.360322 23.921 0.551088 24 0.75 24H3.75C3.94891 24 4.13968 23.921 4.28033 23.7804C4.42098 23.6397 4.5 23.449 4.5 23.25V15.375L5.625 14.5275C6.48326 13.9016 7.51123 13.5506 8.57312 13.5212C9.63501 13.4917 10.6809 13.7851 11.5725 14.3625C12.3671 14.8719 13.3111 15.0967 14.25 15C14.4489 15 14.6397 15.0791 14.7803 15.2197C14.921 15.3604 15 15.5511 15 15.75V16.5H9.75C9.55109 16.5 9.36032 16.5791 9.21967 16.7197C9.07902 16.8604 9 17.0511 9 17.25C9 17.449 9.07902 17.6397 9.21967 17.7804C9.36032 17.921 9.55109 18 9.75 18H15.75C15.9486 17.9973 16.1388 17.9196 16.2825 17.7825L20.6625 13.4025C20.7845 13.2797 20.9453 13.2029 21.1176 13.1851C21.2898 13.1673 21.4629 13.2097 21.6075 13.305L22.1775 13.6875L16.35 21.45C16.2801 21.5432 16.1896 21.6188 16.0854 21.6709C15.9813 21.7229 15.8664 21.75 15.75 21.75H6.75C6.55109 21.75 6.36032 21.8291 6.21967 21.9697C6.07902 22.1104 6 22.3011 6 22.5C6 22.699 6.07902 22.8897 6.21967 23.0304C6.36032 23.171 6.55109 23.25 6.75 23.25H15.75C16.0993 23.25 16.4438 23.1687 16.7562 23.0125C17.0687 22.8563 17.3404 22.6295 17.55 22.35L23.85 13.95C23.9108 13.8683 23.9543 13.775 23.9778 13.6758C24.0013 13.5767 24.0044 13.4738 23.9869 13.3735C23.9693 13.2731 23.9315 13.1774 23.8757 13.0921C23.82 13.0068 23.7474 12.9338 23.6625 12.8775ZM3 22.5H1.5V13.5H3V22.5Z" fill="#757575"/>
<path d="M21.4875 4.68005L16.2375 0.180049C16.1017 0.0638523 15.9288 0 15.75 0C15.5713 0 15.3984 0.0638523 15.2625 0.180049L12.75 2.33255V0.750049C12.75 0.551137 12.671 0.360372 12.5304 0.219719C12.3897 0.079067 12.199 4.93442e-05 12 4.93442e-05C11.8011 4.93442e-05 11.6104 0.079067 11.4697 0.219719C11.3291 0.360372 11.25 0.551137 11.25 0.750049V3.62255L10.0125 4.68005C9.86137 4.80934 9.76775 4.99339 9.75227 5.19171C9.7368 5.39003 9.80075 5.58638 9.93004 5.73755C10.0593 5.88872 10.2434 5.98234 10.4417 5.99782C10.64 6.01329 10.8364 5.94934 10.9875 5.82005L11.25 5.59505V9.00005C11.25 9.39787 11.4081 9.7794 11.6894 10.0607C11.9707 10.342 12.3522 10.5 12.75 10.5H18.75C19.1479 10.5 19.5294 10.342 19.8107 10.0607C20.092 9.7794 20.25 9.39787 20.25 9.00005V5.59505L20.5125 5.82005C20.6637 5.94934 20.8601 6.01329 21.0584 5.99782C21.2567 5.98234 21.4407 5.88872 21.57 5.73755C21.6993 5.58638 21.7633 5.39003 21.7478 5.19171C21.7323 4.99339 21.6387 4.80934 21.4875 4.68005ZM18.75 9.00005H16.5V7.50005C16.5 7.30114 16.421 7.11037 16.2804 6.96972C16.1397 6.82907 15.949 6.75005 15.75 6.75005C15.5511 6.75005 15.3604 6.82907 15.2197 6.96972C15.0791 7.11037 15 7.30114 15 7.50005V9.00005H12.75V4.31255L15.75 1.74005L18.75 4.31255V9.00005Z" fill="#4CAF50"/>
</g>

</symbol><symbol id="icon-metro" viewBox="0 0 20 20">
<path d="M13.242 2.24766L9.99989 12.4689L6.75798 2.24766C2.90144 3.57323 0 7.16914 0 11.2916C0 13.7746 1.01298 16.0644 2.65178 17.752H7.35212L7.84488 15.6151C2.22957 13.4149 3.29134 6.59717 5.32701 5.48429C5.56864 5.55695 9.10942 17.7017 9.10942 17.7017C9.15779 17.7017 9.31493 17.7017 9.50692 17.7017C9.54747 17.7017 9.70018 17.7017 9.89048 17.7017C9.95934 17.7017 10.0337 17.7017 10.1091 17.7017C10.2384 17.7017 10.3725 17.7017 10.4924 17.7017C10.6846 17.7017 10.8416 17.7017 10.8902 17.7017C10.8902 17.7017 14.4311 5.55695 14.6726 5.48429C16.7085 6.59717 17.7698 13.4149 12.1545 15.6151L12.6475 17.752H17.3478C18.9868 16.0644 19.9998 13.7746 19.9998 11.2916C19.9998 7.16914 17.0983 3.57323 13.242 2.24766Z" fill="#8EB3F5"/>
</symbol><symbol id="icon-view" viewBox="0 0 18 18">
<g clip-path="url(#clip0_146_842)">
<path d="M17.8969 8.69829C16.3916 5.52928 12.9688 2.67188 8.96485 2.67188C4.45963 2.67188 1.22127 6.19616 0.0328217 8.69829C-0.0578156 8.88918 -0.0578156 9.11083 0.0328217 9.30172C1.53809 12.4707 4.96088 15.3281 8.96485 15.3281C13.4701 15.3281 16.7084 11.8037 17.8969 9.30172C17.9875 9.11083 17.9875 8.88918 17.8969 8.69829ZM8.96485 13.9219C5.72553 13.9219 3.03978 11.7871 1.46434 9.00001C3.03319 6.22431 5.71729 4.07813 8.96485 4.07813C12.2039 4.07813 14.8899 6.21263 16.4654 9.00001C14.8965 11.7756 12.2124 13.9219 8.96485 13.9219ZM8.96485 5.48438C7.02631 5.48438 5.44922 7.06147 5.44922 9.00001C5.44922 10.9385 7.02631 12.5156 8.96485 12.5156C10.9034 12.5156 12.4805 10.9385 12.4805 9.00001C12.4805 7.06147 10.9034 5.48438 8.96485 5.48438ZM8.96485 11.1094C7.80181 11.1094 6.85548 10.163 6.85548 9.00001C6.85548 7.83683 7.80181 6.89063 8.96485 6.89063C10.128 6.89063 11.0742 7.83683 11.0742 9.00001C11.0742 10.163 10.128 11.1094 8.96485 11.1094Z"/>
</g>

</symbol></svg>